# xmcd
#
# Track frame offsets:
#	150
#	16051
#	40468
#	58166
#	76668
#	94085
#	110623
#	128480
#	143594
#	158171
#	173220
#	186225
#	199220
#	215247
#	231490
#	247804
#	266114
#	283580
#
# Disc length: 4024 seconds
#
# Revision: 0
# Processed by: cddbd v1.5.1PL0 Copyright (c) Steve Scherf et al.
# Submitted via: dBpowerAMP V4.0
#
DISCID=020fb612
DTITLE=Pegi Zina - Matwnw
DYEAR=2004
DGENRE=Other
TTITLE0=Matwnw
TTITLE1=Pouthena (Long Version)
TTITLE2=Efiges
TTITLE3=Diokse Tin Pikra
TTITLE4=Opoios Ki An Eisai
TTITLE5=Logia
TTITLE6=Xwris Ftera
TTITLE7=Monaxa Emena Na Rwtas
TTITLE8=Ela Kardia Mou
TTITLE9=Mia Bradia Xwrismou
TTITLE10=Pou Ta Les Auta
TTITLE11=Twra Pou ToSkeutikes
TTITLE12=Osa Pairnei O Anemos
TTITLE13=Nixta Mi Me Malwneis
TTITLE14=Otan Peutei Ena Asteri
TTITLE15=De Leei
TTITLE16=Den Xreiazetai
TTITLE17=Pouthena (Short Radio Version)
EXTD=
EXTT0=
EXTT1=
EXTT2=
EXTT3=
EXTT4=
EXTT5=
EXTT6=
EXTT7=
EXTT8=
EXTT9=
EXTT10=
EXTT11=
EXTT12=
EXTT13=
EXTT14=
EXTT15=
EXTT16=
EXTT17=
PLAYORDER=
